<?xml version="1.0" encoding="UTF-8"?>
<svg id="Layer_1" xmlns="http://www.w3.org/2000/svg" version="1.1" viewBox="0 0 1920 1080">
  <!-- Generator: Adobe Illustrator 30.0.0, SVG Export Plug-In . SVG Version: 2.1.1 Build 123)  -->
  <defs>
    <style>
      .st0 {
        fill: #0071bb;
      }

      .st1 {
        fill: #130508;
      }
    </style>
  </defs>
  <g id="LearNEST.">
    <g id="Lear">
      <path class="st0" d="M334.6,656.5c2.2,2.1,3.3,4.8,3.3,8.2s-1.1,6.2-3.3,8.4c-2.2,2.2-5,3.3-8.4,3.3h-139.2c-3.4,0-6.2-1.1-8.4-3.3-2.2-2.2-3.3-5-3.3-8.4v-249.5c0-3.4,1.2-6.2,3.5-8.4s5.3-3.3,9-3.3,6.2,1.1,8.6,3.3c2.3,2.2,3.5,5,3.5,8.4v238.1h126.3c3.4,0,6.2,1,8.4,3.1h0Z"/>
      <path class="st0" d="M541.8,573.3c-2.3,2.2-5.1,3.3-8.2,3.3h-147.3c0,15.6,3.2,29.6,9.6,41.9,6.4,12.3,15.5,22.1,27.3,29.2,11.8,7.2,25.8,10.7,41.9,10.7s23.6-2.6,33.5-7.8c9.9-5.2,17.8-11.8,23.8-19.9,2.9-2.3,5.6-3.5,8.2-3.5s4.9,1,7,3.1,3.1,4.4,3.1,7-1.3,5.6-3.9,8.2c-8.3,10.1-18.8,18.5-31.4,24.9s-25.9,9.7-39.9,9.7c-20,0-37.7-4.3-53-12.9-15.3-8.6-27.3-20.6-35.9-36-8.6-15.5-12.9-33.3-12.9-53.6s4.2-39.9,12.7-55.9c8.4-16,19.7-28.2,33.7-36.6,14-8.4,29-12.7,44.8-12.7s30.2,3.6,43.8,10.9c13.6,7.3,24.8,17.9,33.3,32,8.6,14,13,30.7,13.2,49.9,0,3.1-1.2,5.8-3.5,8h0ZM413,510.8c-12.9,10.4-21.1,25.3-24.8,44.8h132.9v-3.1c-1.3-11.7-5.2-21.9-11.7-30.6-6.5-8.7-14.6-15.3-24.4-19.9-9.7-4.5-19.8-6.8-30.2-6.8-15.1,0-29,5.2-41.9,15.6h0Z"/>
      <path class="st0" d="M765.3,480.8c2.2,2.3,3.3,5.2,3.3,8.6v175.4c0,3.4-1.1,6.2-3.3,8.4-2.2,2.2-5,3.3-8.4,3.3s-6.2-1.1-8.4-3.3c-2.2-2.2-3.3-5-3.3-8.4v-26.1c-6.5,11.7-16.2,21.6-29.2,29.6-13,8.1-27.2,12.1-42.5,12.1s-33.1-4.5-47-13.6c-13.9-9.1-24.8-21.6-32.7-37.4-7.9-15.8-11.9-33.6-11.9-53.4s4-37.5,12.1-53.2c8.1-15.7,19-28,32.9-36.8,13.9-8.8,29.3-13.2,46.2-13.2s29.9,3.8,42.9,11.3c13,7.5,22.7,17.4,29.2,29.6v-24.2c0-3.4,1.1-6.2,3.3-8.6,2.2-2.3,5-3.5,8.4-3.5s6.2,1.2,8.4,3.5h0ZM712.3,647.8c10.8-7.1,19.2-17,25.3-29.6,6.1-12.6,9.2-26.7,9.2-42.3s-3.1-28.8-9.2-41.3c-6.1-12.5-14.6-22.3-25.3-29.4-10.8-7.1-22.9-10.7-36.4-10.7s-25.7,3.5-36.4,10.5c-10.8,7-19.2,16.7-25.3,29-6.1,12.3-9.2,26.3-9.2,41.9s3,29.7,9,42.3c6,12.6,14.4,22.5,25.1,29.6,10.8,7.2,23.1,10.7,36.8,10.7s25.7-3.6,36.4-10.7Z"/>
      <path class="st0" d="M937,475.7c4.2,2.1,6.2,5.2,6.2,9.4s-1,6.6-3.1,8.8c-2.1,2.2-4.5,3.3-7.4,3.3s-3.8-.6-7.6-2c-3.8-1.3-7.3-2-10.7-2-9.6,0-19.2,3.7-28.7,11.1-9.5,7.4-17.3,17-23.4,28.7-6.1,11.7-9.2,23.5-9.2,35.5v96.3c0,3.4-1.1,6.2-3.3,8.4-2.2,2.2-5,3.3-8.4,3.3s-6.2-1.1-8.4-3.3c-2.2-2.2-3.3-5-3.3-8.4v-174.6c0-3.4,1.1-6.2,3.3-8.4s5-3.3,8.4-3.3,6.2,1.1,8.4,3.3c2.2,2.2,3.3,5,3.3,8.4v34.3c6-14.8,15-27.1,27.1-36.8,12.1-9.7,26.3-14.7,42.7-15,5.2,0,9.9,1,14,3.1h0Z"/>
    </g>
    <g id="NEST">
      <path class="st1" d="M1193.3,406.7c2,2.1,2.9,4.7,2.9,7.8v249.5c0,3.9-1.2,7-3.5,9.2-2.3,2.2-5.2,3.3-8.6,3.3s-3.6-.4-5.3-1.2c-1.7-.8-3.1-1.7-4.1-2.7l-167.2-225.3v218.7c0,2.9-1.1,5.3-3.3,7.4-2.2,2.1-4.7,3.1-7.6,3.1s-5.7-1-7.8-3.1-3.1-4.5-3.1-7.4v-250.6c0-3.6,1.1-6.5,3.3-8.6,2.2-2.1,4.9-3.1,8-3.1s7.3,1.4,9.4,4.3l168,226.5v-219.8c0-3.1,1-5.7,3.1-7.8,2.1-2.1,4.7-3.1,7.8-3.1s6,1,8,3.1h0Z"/>
      <path class="st1" d="M1432.6,656.9c2.2,2.3,3.3,5.1,3.3,8.2s-1.1,6.1-3.3,8.2c-2.2,2.1-5,3.1-8.4,3.1h-143.1c-3.4,0-6.2-1.1-8.4-3.3-2.2-2.2-3.3-5-3.3-8.4v-249.5c0-3.4,1.1-6.2,3.3-8.4s5-3.3,8.4-3.3h143.1c3.4,0,6.2,1.1,8.4,3.3,2.2,2.2,3.3,5,3.3,8.4s-1.1,6.1-3.3,8.2c-2.2,2.1-5,3.1-8.4,3.1h-130.2v97.8h112.6c3.4,0,6.2,1.1,8.4,3.3,2.2,2.2,3.3,5,3.3,8.4s-1.1,6.1-3.3,8.2c-2.2,2.1-5,3.1-8.4,3.1h-112.6v106h130.2c3.4,0,6.2,1.2,8.4,3.5h0Z"/>
      <path class="st1" d="M1514.8,671c-14.4-6.2-28.4-16-41.9-29.2-3.1-2.6-4.7-5.7-4.7-9.4s1.2-6,3.7-8.6,5.3-3.9,8.4-3.9,6,1.3,8.6,3.9c20.3,22.4,45.6,33.5,76,33.5s34.2-4.4,46.6-13.2c12.3-8.8,18.5-20.4,18.5-34.7s-3.1-20.5-9.2-27.9c-6.1-7.4-14.1-13.4-24-18.1-9.9-4.7-22.5-9.5-37.8-14.4-16.6-4.9-30.6-10.4-41.9-16.4-11.3-6-20.5-14-27.5-24-7-10-10.5-22.7-10.5-38s3.7-26,11.1-36.6c7.4-10.7,17.8-19,31.2-25.1,13.4-6.1,28.8-9.2,46.2-9.2s30.7,2.7,44.6,8c13.9,5.3,25,12.9,33.3,22.8,3.9,4.4,5.9,8.2,5.9,11.3s-1.3,5.5-3.9,8c-2.6,2.5-5.5,3.7-8.6,3.7s-4.8-.9-6.6-2.7c-7-8.3-16.4-15.1-28.1-20.3-11.7-5.2-23.9-7.8-36.6-7.8-19,0-34.4,4.2-46.4,12.7-12,8.4-17.9,19.9-17.9,34.5s5.7,26.6,17.1,34.7c11.4,8.1,27.8,15.5,49.1,22.2,18.5,5.5,33.5,11,45.2,16.8,11.7,5.7,21.2,13.8,28.7,24.4s11.1,24.4,11.1,41.5-3.8,25.3-11.5,36c-7.7,10.8-18.3,19.3-32,25.5-13.6,6.2-29.2,9.4-46.6,9.4s-35.3-3.1-49.7-9.4h0Z"/>
      <path class="st1" d="M1892.1,406.7c2.2,2.1,3.3,4.8,3.3,8.2s-1.1,6-3.3,8c-2.2,2-5,2.9-8.4,2.9h-80.7v238.9c0,3.4-1.2,6.2-3.5,8.4-2.3,2.2-5.2,3.3-8.6,3.3s-6.6-1.1-8.8-3.3c-2.2-2.2-3.3-5-3.3-8.4v-238.9h-80.7c-3.4,0-6.2-1-8.4-3.1-2.2-2.1-3.3-4.8-3.3-8.2s1.1-5.7,3.3-7.8c2.2-2.1,5-3.1,8.4-3.1h185.5c3.4,0,6.2,1,8.4,3.1h0Z"/>
    </g>
    <path id="_dot_" class="st0" d="M1893.5,672.3c-2.3-2.7-3.5-6.4-3.5-11.1v-8.2c0-4.7,1.2-8.3,3.5-10.9,2.3-2.6,5.7-3.9,10.1-3.9h2.7c4.4,0,7.8,1.3,10.1,3.9,2.3,2.6,3.5,6.2,3.5,10.9v8.2c0,4.7-1.2,8.4-3.5,11.1s-5.7,4.1-10.1,4.1h-2.7c-4.4,0-7.8-1.4-10.1-4.1Z"/>
  </g>
  <polygon class="st1" points="722.6 364.6 722.6 178.7 0 178.7 0 901.3 722.6 901.3 722.6 715.4 701.6 715.4 701.6 880.3 21 880.3 21 199.7 701.6 199.7 701.6 364.6 722.6 364.6"/>
</svg>