<?xml version="1.0" encoding="utf-8"?>
<!-- Generator: Adobe Illustrator 27.6.1, SVG Export Plug-In . SVG Version: 6.00 Build 0)  -->
<svg version="1.1" id="Layer_1" xmlns="http://www.w3.org/2000/svg" xmlns:xlink="http://www.w3.org/1999/xlink" x="0px" y="0px"
	 viewBox="0 0 300 100" style="enable-background:new 0 0 300 100;" xml:space="preserve">
<style type="text/css">
	.st0{fill:#0071BB;}
	.st1{fill:#ED1C24;}
	.st2{fill:#44C7F4;}
	.st3{fill:#008CCF;}
	.st4{fill:#FFFFFF;}
	.st5{fill:#0071BB;}
</style>
<g id="super-course-logo-normal">
	<g id="course">
		<polygon class="st0" points="281.6,29.8 281.6,39.2 296.4,39.2 296.4,51.6 281.6,51.6 281.6,61.3 300,61.3 300,73.7 266.2,73.7 
			266.2,17.4 300,17.4 300,29.8 		"/>
		<path class="st0" d="M258.8,46.5c-1.9-1.5-4.2-2.4-6.6-2.4c-1.9,0-4.3,1-4.3,3.1s2.7,3,4.4,3.5l2.6,0.7c5.4,1.5,9.5,4.1,9.5,10
			c0,3.6-0.9,7.4-4,9.9c-3.2,2.4-7,3.6-11,3.4c-4.8,0-9.5-1.5-13.6-4.2l4.3-7.7c2.5,2.1,5.5,3.8,8.9,3.8c2.4,0,4.9-1.1,4.9-3.7
			c0-2.6-3.9-3.6-6.1-4.2c-6.3-1.7-10.4-3.3-10.4-10.3c0-7.4,5.6-12.3,13.3-12.3c4.2,0.1,8.3,1.1,12.1,3L258.8,46.5z"/>
		<path class="st0" d="M224.5,58.7c5.5-0.9,8.4-5.3,8.4-10.3c0-7.8-5.8-11.3-13.4-11.3h-15v36.6h10V59.6h0.1l9.5,14.1h12.5
			L224.5,58.7z M215.5,53.5h-1v-9.1h1c3.3,0,7,0.6,7,4.6S218.8,53.5,215.5,53.5L215.5,53.5z"/>
		<path class="st0" d="M201.4,37.1v20.6c0,4.7-0.2,9.4-4,12.9c-3.2,3-8.3,4.1-12.8,4.1s-9.6-1.1-12.8-4.1c-3.8-3.5-4-8.2-4-12.9
			V37.1h10v19.3c0,4.8,0.4,9.9,6.8,9.9s6.8-5.2,6.8-10V37.1H201.4z"/>
		<path class="st0" d="M144.5,35.9c-11.1,0-21.3,7.8-21.3,18.8c0,11.8,8.9,20.2,21.3,20.2s21.3-8.3,21.3-20.2
			C165.8,43.7,155.6,35.9,144.5,35.9z M144.5,65.7c-5.9,0.1-10.8-4.7-10.9-10.6c0-0.1,0-0.2,0-0.3c0-5,4.9-9.7,10.9-9.7
			s10.9,4.6,10.9,9.7c0.1,5.9-4.6,10.8-10.6,10.9C144.7,65.7,144.6,65.7,144.5,65.7z"/>
		<path class="st0" d="M120.9,33.5c-3.1-2.4-7.4-3.4-11.5-3.4c-9.4,0-15.8,6.9-15.8,15.6S100,61,109.7,61c3.9-0.1,7.8-1.1,11.3-2.9
			v15c-3.7,1.3-7.6,2-11.6,2.1c-8.2,0-16.1-2.9-22.3-8.3c-6.5-5.6-9.5-12.9-9.5-21.3c0-7.8,3.2-15.2,8.7-20.6
			c6.1-5.8,14.2-9.1,22.6-9.1c4.1,0,8.2,0.7,12.1,2.1C120.9,21.7,120.9,30.7,120.9,33.5z"/>
	</g>
	<g id="super">
		<path class="st1" d="M254,27.4h-9l-6.9-10.2H238v10.2h-7.3V0.9h10.9c5.5,0,9.7,2.5,9.7,8.1c0.2,3.7-2.5,6.9-6.1,7.5L254,27.4z
			 M238,12.8h0.7c2.4,0,5-0.4,5-3.3s-2.7-3.3-5-3.3H238V12.8z"/>
		<path class="st1" d="M217.7,6.7v4.5h8.2V17h-8.2v4.6h8.6v5.8h-15.9V0.9h15.9v5.8H217.7z"/>
		<path class="st1" d="M186,0.9h11.1c6,0,10.1,2.6,10.1,8.7c0,6.2-3.6,9-9.9,9h-4.1v8.8H186V0.9z M193.3,13h1.2c2.6,0,5.2,0,5.2-3.2
			s-2.4-3.4-5.2-3.4h-1.2V13z"/>
		<path class="st1" d="M181.4,0.5v14.9c0,3.4-0.1,6.8-2.9,9.3c-2.3,2.2-6,3-9.3,3s-6.9-0.8-9.3-3c-2.8-2.6-2.9-5.9-2.9-9.3V0.5h7.3
			v13.9c0,3.4,0.3,7.2,4.9,7.2s4.9-3.8,4.9-7.2V0.5H181.4z"/>
		<path class="st1" d="M149.7,7.7c-1.4-1.1-3.1-1.7-4.8-1.8c-1.3,0-3.1,0.7-3.1,2.2s2,2.2,3.2,2.5l1.9,0.5c3.9,1.1,6.9,3,6.9,7.2
			c0,2.6-0.7,5.3-2.9,7.1c-2.3,1.7-5.1,2.6-7.9,2.5c-3.5,0-6.9-1.1-9.8-3l3.1-5.5c1.8,1.6,4,2.6,6.4,2.7c1.7,0,3.5-0.8,3.5-2.7
			s-2.8-2.6-4.4-3c-4.6-1.2-7.6-2.4-7.6-7.5c0-5.4,4-8.9,9.6-8.9c3,0,6,0.8,8.7,2.2L149.7,7.7z"/>
	</g>
	<g id="icon">
		<path class="st2" d="M60,41.4c-2.6,7.1-5.7,17.7-4.4,33.8c-10.1-6.6-21.5-10.9-33.5-12.6c-4.9-0.7-9.8-1-14.7-0.8
			c-0.1-0.3-0.2-0.7-0.2-1c0-0.4,0.1-0.9,0.3-1.3c4.4-0.6,8.8-0.9,13.3-0.9c7.5,0,18.5,1,29.2,5.9l0.9,0.4v-1
			c0.3-9.6,4.6-20.4,7.8-26.7c1.7-3.4,3.8-6.6,6.1-9.5l1.7,1.6C63.8,33,61.6,37.1,60,41.4z"/>
		<path class="st3" d="M8.8,54.8c2.7-0.6,21.4-4.4,35.8-0.8l0.7,0.2l0.1-0.7c1.2-9.4,12.2-24.2,14.8-27.4l2.1,2.1
			c-2,2.9-3.9,5.9-5.5,9.1c-3.2,6.2-7,15.5-7.6,25c-10.6-4.7-21.5-5.7-28.8-5.6c-3.8,0-7.7,0.3-11.4,0.9c-0.2-0.4-0.3-0.9-0.3-1.3
			C8.6,55.7,8.7,55.2,8.8,54.8z"/>
		<path class="st0" d="M30.3,35.4c10.4-6.2,23.9-9.2,28.6-10.1c-3.3,4.3-13.1,17.4-14.7,26.6C31.3,48.9,15,52,9.6,53
			C15.6,46.2,22.6,40.3,30.3,35.4z"/>
		<path class="st1" d="M24.9,37.4c1.5-1.1,3.1-2.1,4.8-3.1c2.5-1.5,5.1-2.8,7.8-3.9c0.1-0.4,0.1-0.9,0.1-1.3c0-5-4.1-9.1-9.1-9.1
			s-9.1,4.1-9.1,9.1C19.3,32.7,21.5,36,24.9,37.4z"/>
		<path class="st0" d="M30.6,0.2C14.4-0.5,0.7,12.1,0,28.4l0,0C-0.2,34.2,1.3,40,4.3,44.9c2.7-2.7,5.5-5.4,8.5-7.8
			c-4.2-9.1-0.1-20,9-24.1c8.2-3.8,18-0.9,22.9,6.7c3.6-1.1,7.3-2,11.2-2.8C51.2,7.1,41.5,0.6,30.6,0.2z"/>
	</g>
	<g id="elt_publishing">
		<g id="background">
			<path class="st4" d="M248.2,99.7h-89.7c-1.3,0-2.3-1-2.3-2.3V85.2c0-1.3,1-2.3,2.3-2.3h89.7c1.3,0,2.3,1,2.3,2.3v12.2
				C250.5,98.7,249.5,99.7,248.2,99.7L248.2,99.7z"/>
			<path class="st5" d="M248.2,100.2H129.3c-1.7,0-3.1-1.4-3.1-3.1V85.3c0-1.7,1.4-3.1,3.1-3.1h118.9c1.7,0,3.1,1.4,3.1,3.1v11.8
				C251.2,98.8,249.9,100.2,248.2,100.2z M129.3,83.2L129.3,83.2c-1.2,0-2.1,1-2.1,2.1v11.8c0,1.2,1,2.1,2.1,2.1h118.9
				c1.2,0,2.1-1,2.1-2.1l0,0V85.3c0-1.2-1-2.1-2.1-2.1H129.3z"/>
			<path class="st5" d="M129.3,82.7c-1.4,0-2.5,1.1-2.5,2.5l0,0v12c0,1.4,1.1,2.5,2.5,2.5l0,0h29.9v-17H129.3z"/>
		</g>
		<g id="publishing">
			<path id="G" class="st5" d="M243.5,96.6c-3.2,0-4.9-1.8-4.9-5.3s1.7-5.4,5-5.4c0.4,0,0.9,0,1.3,0.1c0.5,0.1,0.9,0.1,1.4,0.3v1.1
				c-0.5-0.1-0.9-0.2-1.4-0.3c-0.4,0-0.8-0.1-1.1-0.1c-1.1-0.1-2.1,0.3-2.9,1c-0.7,0.9-1,2.1-0.9,3.3c-0.1,1.1,0.2,2.3,0.9,3.2
				c0.7,0.7,1.7,1.1,2.7,1c0.2,0,0.5,0,0.8,0l0.9-0.1v-4.2h1.2v5l-0.7,0.2l-0.8,0.1c-0.3,0-0.5,0.1-0.7,0.1L243.5,96.6L243.5,96.6z"
				/>
			<polygon id="N" class="st5" points="228,86 229.1,86 234.5,93.3 235.3,94.6 235.4,94.6 235.4,86 236.5,86 236.5,96.5 235.4,96.5 
				230,89.2 229.2,88 229.1,88 229.1,96.5 228,96.5 			"/>
			<polygon id="I" class="st5" points="224.1,86 225.4,86 225.4,96.5 224.1,96.5 			"/>
			<polygon id="H" class="st5" points="213.2,86 214.4,86 214.4,90.6 220.2,90.6 220.2,86 221.5,86 221.5,96.5 220.2,96.5 
				220.2,91.7 214.4,91.7 214.4,96.5 213.2,96.5 			"/>
			<path id="S" class="st5" d="M207.5,96.6h-0.8l-0.8-0.1l-0.9-0.2l-0.8-0.2V95c0.6,0.1,1.1,0.2,1.7,0.3c0.5,0.1,1,0.1,1.5,0.1
				c0.7,0,1.3-0.1,1.9-0.4c0.4-0.3,0.7-0.8,0.6-1.3c0-0.3-0.1-0.6-0.2-0.8c-0.1-0.2-0.3-0.4-0.5-0.6s-0.5-0.3-0.8-0.4
				c-0.3-0.1-0.6-0.2-1-0.3c-0.5-0.1-1-0.3-1.4-0.5c-0.4-0.1-0.7-0.4-1-0.6c-0.2-0.2-0.4-0.5-0.6-0.8c-0.1-0.3-0.2-0.7-0.2-1.1
				c0-0.4,0.1-0.8,0.3-1.2c0.2-0.4,0.4-0.7,0.7-0.9c0.3-0.3,0.7-0.5,1.1-0.6c0.5-0.1,1-0.2,1.5-0.2c0.4,0,0.8,0,1.3,0.1
				c0.4,0.1,1,0.2,1.5,0.3v1.1c-0.5-0.1-0.9-0.2-1.4-0.3c-0.4-0.1-0.8-0.1-1.3-0.1c-0.6,0-1.2,0.1-1.8,0.5c-0.4,0.3-0.7,0.8-0.6,1.3
				c0,0.2,0,0.5,0.1,0.7s0.2,0.4,0.4,0.5c0.2,0.2,0.5,0.3,0.7,0.4c0.4,0.2,0.7,0.3,1.1,0.4c0.5,0.1,0.9,0.3,1.3,0.4
				c0.4,0.1,0.7,0.3,1,0.6c0.3,0.2,0.5,0.5,0.6,0.8c0.2,0.4,0.3,0.8,0.2,1.2c0,0.8-0.3,1.6-1,2.1C209.4,96.5,208.4,96.7,207.5,96.6
				L207.5,96.6z"/>
			<polygon id="I-2" class="st5" points="201,86 202.2,86 202.2,96.5 201,96.5 			"/>
			<polygon id="L" class="st5" points="193.4,86 194.6,86 194.6,95.5 199.4,95.5 199.4,96.5 193.4,96.5 			"/>
			<path id="B" class="st5" d="M187.2,96.6c-1.1,0-2.3-0.1-3.4-0.2V86.1c0.7-0.1,1.3-0.1,1.8-0.2c0.5-0.1,1,0,1.4,0
				c1-0.1,2.1,0.1,3,0.7c0.6,0.5,1,1.3,0.9,2.2c0,0.6-0.1,1.1-0.5,1.6c-0.3,0.4-0.8,0.7-1.3,0.8l0,0c0.6,0.1,1.2,0.4,1.6,0.8
				c0.4,0.5,0.6,1.1,0.6,1.7C191.3,95.7,190,96.6,187.2,96.6L187.2,96.6z M187.3,90.7L187.3,90.7c0.6,0.1,1.3-0.1,1.9-0.4
				c0.4-0.4,0.6-0.9,0.6-1.5c0.1-0.6-0.2-1.1-0.6-1.5c-0.6-0.3-1.3-0.5-2-0.4H186c-0.3,0-0.6,0-0.9,0.1v3.7H187.3z M187.2,95.7
				L187.2,95.7c0.7,0.1,1.5-0.1,2.1-0.5c0.5-0.4,0.7-0.9,0.7-1.5c0-0.6-0.2-1.1-0.6-1.5c-0.6-0.4-1.3-0.5-2-0.5h-2.3v3.9
				C185.8,95.6,186.5,95.7,187.2,95.7L187.2,95.7z"/>
			<path id="U" class="st5" d="M177.2,96.6c-0.6,0-1.3-0.1-1.9-0.3c-0.5-0.1-0.9-0.4-1.3-0.8c-0.4-0.4-0.6-0.9-0.8-1.4
				c-0.2-0.7-0.3-1.3-0.2-2v-6.2h1.3v6.3c-0.1,0.9,0.2,1.8,0.7,2.6c1.3,1,3.1,1,4.4,0c0.6-0.7,0.8-1.6,0.7-2.6V86h1.3v6.2
				c0,0.7-0.1,1.3-0.2,2c-0.1,0.5-0.4,1-0.8,1.4c-0.4,0.4-0.8,0.6-1.3,0.8C178.5,96.6,177.8,96.7,177.2,96.6L177.2,96.6z"/>
			<path id="P" class="st5" d="M163.9,86.1c0.9-0.1,1.7-0.2,2.6-0.2c1.3-0.1,2.5,0.2,3.6,0.9c0.8,0.7,1.2,1.7,1.1,2.8
				c0.1,1-0.3,2.1-1.1,2.8c-1.1,0.7-2.3,1-3.6,0.9h-0.7H165v3.4h-1.3L163.9,86.1L163.9,86.1z M166.7,92.1L166.7,92.1
				c0.5,0,1,0,1.5-0.1c0.4-0.1,0.7-0.2,1-0.4s0.5-0.5,0.6-0.8c0.1-0.4,0.2-0.8,0.2-1.2c0-0.4-0.1-0.8-0.2-1.2
				c-0.1-0.3-0.3-0.6-0.6-0.8s-0.6-0.4-1-0.5c-0.5-0.1-1-0.2-1.5-0.2h-0.8l-0.8,0.1v4.9h0.3h0.4h0.4L166.7,92.1z"/>
		</g>
		<g id="elt">
			<polygon id="T" class="st4" points="149.4,87.9 146.4,87.9 146.4,86 154.9,86 154.9,87.9 151.8,87.9 151.8,96.5 149.4,96.5 			
				"/>
			<polygon id="L-2" class="st4" points="140.4,86 142.8,86 142.8,94.6 147.3,94.6 147.3,96.5 140.4,96.5 			"/>
			<polygon id="E" class="st4" points="131,86 138.6,86 138.6,87.9 133.4,87.9 133.4,90.3 138.1,90.3 138.1,92.1 133.4,92.1 
				133.4,94.6 138.7,94.6 138.7,96.5 131,96.5 			"/>
		</g>
	</g>
</g>
</svg>
